<svg width="22" height="23" viewBox="0 0 22 23" fill="none" xmlns="http://www.w3.org/2000/svg">
<path d="M0 0H7.3331V7.66642H0V0Z" fill="#28A5FF"/>
<path d="M7.3335 0H14.6666V7.66642H7.3335V0Z" fill="#28A5FF"/>
<path d="M7.3335 7.66699H14.6666V15.3334H7.3335V7.66699Z" fill="#28A5FF"/>
<path d="M14.667 7.66699H22.0001V15.3334H14.667V7.66699Z" fill="#28A5FF"/>
<path d="M0 7.66699H7.3331V15.3334H0V7.66699Z" fill="#28A5FF"/>
<path d="M0 15.334H7.3331V23.0004H0V15.334Z" fill="#28A5FF"/>
<path d="M14.667 15.334H22.0001V23.0004H14.667V15.334Z" fill="#28A5FF"/>
<path fill-rule="evenodd" clip-rule="evenodd" d="M7.33389 8.76083H14.667V11.5781L7.33389 11.5781V8.76083Z" fill="#004272"/>
<path d="M14.6709 0H18.5226C20.443 0 21.9998 1.62756 21.9998 3.63526V7.67599H14.6709V0Z" fill="#28A5FF"/>
</svg>
