<svg width="23" height="41" viewBox="0 0 23 41" fill="none" xmlns="http://www.w3.org/2000/svg">
<path d="M7.41144 8.18835H14.8226V16.3764H7.41144V8.18835Z" fill="#28A5FF"/>
<path d="M7.41144 16.377H14.8226V24.565H7.41144V16.377Z" fill="#28A5FF"/>
<path d="M7.41144 24.5638H14.8226V32.7519H7.41144V24.5638Z" fill="#28A5FF"/>
<path d="M7.41144 32.7523H14.8226V40.9404H7.41144V32.7523Z" fill="#28A5FF"/>
<path d="M0 8.18835H7.41112V16.3764H0V8.18835Z" fill="#28A5FF"/>
<path d="M0 16.377H7.41112V24.565H0V16.377Z" fill="#28A5FF"/>
<path d="M14.8229 16.377H22.2341V24.565H14.8229V16.377Z" fill="#28A5FF"/>
<path fill-rule="evenodd" clip-rule="evenodd" d="M7.41148 24.565L7.41148 16.377L10.1088 16.377L10.1088 24.565L7.41148 24.565Z" fill="#004272"/>
<path fill-rule="evenodd" clip-rule="evenodd" d="M14.8229 24.565L14.8229 16.377L17.5202 16.377L17.5202 24.565L14.8229 24.565Z" fill="#004272"/>
<path fill-rule="evenodd" clip-rule="evenodd" d="M7.41582 8.16141L14.8182 8.16141L14.8182 11.1924L7.41581 11.1924L7.41582 8.16141Z" fill="#004272"/>
<path d="M7.41583 0.0147705H11.3379C13.2601 0.0147705 14.8183 1.73586 14.8183 3.85894V8.19102H7.41583V0.0147705Z" fill="#28A5FF"/>
<path d="M14.8316 8.20581H18.7537C20.6758 8.20581 22.234 9.9269 22.234 12.05V16.3821H14.8316V8.20581Z" fill="#28A5FF"/>
</svg>
