<svg width="23" height="26" viewBox="0 0 23 26" fill="none" xmlns="http://www.w3.org/2000/svg">
<path d="M0 0.706543H7.41113V8.89435H0V0.706543Z" fill="#28A5FF"/>
<path d="M7.41156 0.706543H14.8227V8.89435H7.41156V0.706543Z" fill="#28A5FF"/>
<path d="M7.41156 17.0829H14.8227V25.2707H7.41156V17.0829Z" fill="#28A5FF"/>
<path d="M14.8229 8.89478H22.2341V17.0826H14.8229V8.89478Z" fill="#28A5FF"/>
<path d="M0 8.89478H7.41113V17.0826H0V8.89478Z" fill="#28A5FF"/>
<path d="M0 17.0829H7.41113V25.2707H0V17.0829Z" fill="#28A5FF"/>
<path d="M14.8229 17.0829H22.2341V25.2707H14.8229V17.0829Z" fill="#28A5FF"/>
<path fill-rule="evenodd" clip-rule="evenodd" d="M17.5233 16.9832L17.5233 25.26L14.8295 25.26L14.8295 16.9832L17.5233 16.9832Z" fill="#004272"/>
<path d="M14.8271 0.706543H18.7579C20.6777 0.706543 22.234 2.42598 22.234 4.54701V8.88969H14.8271V0.706543Z" fill="#28A5FF"/>
</svg>
