<svg width="23" height="26" viewBox="0 0 23 26" fill="none" xmlns="http://www.w3.org/2000/svg">
<path d="M0 0.587402H7.41114V8.77525H0V0.587402Z" fill="#28A5FF"/>
<path d="M7.41156 0.587402H14.8227V8.77525H7.41156V0.587402Z" fill="#28A5FF"/>
<path d="M7.41156 16.9637H14.8227V25.1516H7.41156V16.9637Z" fill="#28A5FF"/>
<path d="M7.41156 8.77563H14.8227V16.9635H7.41156V8.77563Z" fill="#28A5FF"/>
<path d="M14.8229 8.77563H22.234V16.9635H14.8229V8.77563Z" fill="#28A5FF"/>
<path d="M0 8.77563H7.41114V16.9635H0V8.77563Z" fill="#28A5FF"/>
<path d="M0 16.9637H7.41114V25.1516H0V16.9637Z" fill="#28A5FF"/>
<path d="M14.8229 16.9637H22.234V25.1516H14.8229V16.9637Z" fill="#28A5FF"/>
<path d="M14.8271 0.587402H18.7453C20.6721 0.587402 22.234 2.35139 22.234 4.52738V8.98258H14.8271V0.587402Z" fill="#28A5FF"/>
<path fill-rule="evenodd" clip-rule="evenodd" d="M7.41087 7.60554L22.2332 7.60554V10.6586L7.41087 10.6586V7.60554Z" fill="#004272"/>
<path fill-rule="evenodd" clip-rule="evenodd" d="M0.000592941 16.9638L14.8229 16.9638V20.0168L0.000592941 20.0168V16.9638Z" fill="#004272"/>
</svg>
