<svg width="1251" height="280" viewBox="0 0 1251 280" fill="none" xmlns="http://www.w3.org/2000/svg">
<path d="M166.87 86.0317C166.87 114.178 158.772 135.686 142.576 150.555C126.646 165.159 101.688 172.461 67.7038 172.461H44.6049V274.823H7.62939e-06L0 -0.79637H67.7038C82.5721 -0.79637 96.1128 0.796796 108.326 3.98313C120.539 7.16948 130.894 12.0818 139.39 18.72C148.152 25.0927 154.922 39.0331 159.701 49.3888C164.48 59.4789 166.87 71.6932 166.87 86.0317ZM121.469 86.8283C121.469 77.8003 120.008 70.3655 117.088 64.5239C114.433 58.6823 110.583 54.1683 105.538 50.9819C100.759 47.5301 94.9181 45.1403 88.0149 43.8127C81.3773 42.485 74.0759 41.8212 66.1108 41.8212H44.6049V136.615H60.9334C69.9606 136.615 78.1913 135.951 85.6254 134.623C93.325 133.03 99.6972 130.375 104.742 126.658C110.052 122.94 114.167 117.895 117.088 111.522C120.008 105.15 121.469 96.9184 121.469 86.8283Z" fill="#B6E0FF"/>
<path d="M361.22 274.823H306.658L258.469 166.487H226.21V274.823H181.605V-0.79637H250.902C283.559 -0.79637 307.322 6.10737 322.19 19.9149C337.324 33.7224 344.891 58.1512 344.891 82.0488C344.891 101.167 340.776 116.966 332.545 129.446C324.58 141.66 313.694 150.555 299.888 156.131L361.22 274.823ZM299.091 82.4471C299.091 74.7468 297.897 68.3741 295.507 63.329C293.383 58.0184 290.33 53.9028 286.347 50.9819C282.365 47.7956 277.586 45.5386 272.01 44.2109C266.7 42.8833 260.859 42.2195 254.487 42.2195H226.21V129.446H243.734C253.292 129.446 261.522 128.915 268.426 127.852C275.329 126.79 281.037 124.533 285.551 121.081C290.064 117.63 293.383 112.85 295.507 106.743C297.897 100.636 299.091 92.5372 299.091 82.4471Z" fill="#B6E0FF"/>
<path d="M445.252 0.39871C461.979 0.39871 475.918 3.31953 487.069 9.16116C498.486 15.0028 507.513 23.7653 514.151 35.4485C520.788 46.8662 525.435 61.3376 528.09 78.8624C531.01 96.3873 532.47 116.833 532.47 140.2C532.47 163.566 531.01 184.012 528.09 201.537C525.435 219.062 520.788 233.666 514.151 245.349C507.513 256.767 498.486 265.396 487.069 271.238C475.918 277.08 461.979 280 445.252 280C428.525 280 414.586 277.08 403.435 271.238C392.284 265.396 383.389 256.767 376.752 245.349C370.114 233.666 365.335 219.062 362.414 201.537C359.759 184.012 358.432 163.566 358.432 140.2C358.432 116.833 359.759 96.3873 362.414 78.8624C365.335 61.3376 370.114 46.8662 376.752 35.4485C383.389 23.7653 392.284 15.0028 403.435 9.16116C414.586 3.31953 428.525 0.39871 445.252 0.39871ZM445.252 37.0417C429.587 37.0417 418.436 45.2731 411.798 61.7359C405.426 78.1986 402.24 104.353 402.24 140.2C402.24 176.046 405.426 202.201 411.798 218.663C418.436 235.126 429.587 243.357 445.252 243.357C460.651 243.357 471.802 235.126 478.706 218.663C485.874 202.201 489.459 176.046 489.459 140.2C489.459 104.353 485.874 78.1986 478.706 61.7359C471.802 45.2731 460.651 37.0417 445.252 37.0417Z" fill="#B6E0FF"/>
<path d="M689.756 0.000229359V189.19C689.756 203.263 688.428 215.875 685.773 227.027C683.384 238.18 679.003 247.739 672.631 255.705C666.259 263.405 657.63 269.379 646.744 273.628C636.124 277.876 622.716 280 606.52 280C602.803 280 598.422 279.735 593.378 279.204C588.333 278.407 583.023 277.345 577.447 276.018C571.872 274.69 566.163 273.097 560.322 271.238C554.747 269.379 549.437 267.122 544.392 264.467V226.231H550.366C560.19 231.541 569.748 235.657 579.04 238.578C588.599 241.499 597.493 242.959 605.724 242.959C621.123 242.959 631.478 238.312 636.788 229.019C642.098 219.725 644.753 206.715 644.753 189.986V41.8212H579.837V0.000229359H689.756Z" fill="#B6E0FF"/>
<path d="M874.248 274.823H714.945V0.000229359H870.664V42.2195H759.55V111.522H863.097V148.962H759.55V237.383H874.248V274.823Z" fill="#B6E0FF"/>
<path d="M1056.25 219.46V259.688C1047.22 266.591 1037.67 271.636 1027.58 274.823C1017.49 278.009 1005.81 279.602 992.531 279.602C973.414 279.602 957.219 276.283 943.943 269.645C930.668 262.741 919.915 253.182 911.684 240.968C903.454 228.753 897.48 214.149 893.763 197.155C890.046 180.162 888.187 161.575 888.187 141.394C888.187 121.214 889.913 102.494 893.365 85.2351C897.082 67.9758 903.055 53.1062 911.286 40.6263C919.517 27.881 930.137 13.1439 943.147 5.97462C956.422 -1.19466 972.485 -4.7793 991.336 -4.7793C1003.81 -4.7793 1014.7 -3.45165 1023.99 -0.79637C1033.29 1.59339 1042.58 5.04527 1051.87 9.55926V56.558H1045.9C1037.4 50.1854 1028.77 45.6714 1020.01 43.0161C1011.51 40.0953 1002.09 38.6348 991.734 38.6348C973.414 38.6348 959.343 47.2645 949.519 64.5239C939.695 81.5177 934.783 106.212 934.783 138.606C934.783 172.594 939.828 198.218 949.917 215.477C960.006 232.736 974.609 241.366 993.726 241.366C1004.88 241.366 1014.83 239.64 1023.59 236.188C1032.62 232.736 1041.38 227.16 1049.88 219.46H1056.25Z" fill="#B6E0FF"/>
<path d="M1179.71 274.823H1135.11V42.2195H1063.82V0.000229359H1251V42.2195H1179.71V274.823Z" fill="#B6E0FF"/>
</svg>
