<svg width="561" height="315" viewBox="0 0 561 315" fill="none" xmlns="http://www.w3.org/2000/svg">
<path d="M87.4182 0.801516C104.26 0.801516 118.295 3.74046 129.523 9.61832C141.019 15.4962 150.108 24.313 156.791 36.0687C163.475 47.5573 168.153 62.1183 170.826 79.7519C173.767 97.3855 175.237 117.958 175.237 141.469C175.237 175.668 172.163 203.588 166.014 225.229C160.133 246.603 149.306 261.966 133.533 271.317L170.024 308.187V315H120.3L94.2352 282.137H87.4182C70.5761 282.137 56.5411 279.198 45.3131 273.321C34.0851 267.443 25.1294 258.76 18.446 247.271C11.7627 235.515 6.95068 220.821 4.01001 203.187C1.33667 185.553 0 164.981 0 141.469C0 117.958 1.33667 97.3855 4.01001 79.7519C6.95068 62.1183 11.7627 47.5573 18.446 36.0687C25.1294 24.313 34.0851 15.4962 45.3131 9.61832C56.5411 3.74046 70.5761 0.801516 87.4182 0.801516ZM87.4182 37.6717C71.6455 37.6717 60.4174 45.9542 53.7341 62.5191C47.0508 79.084 43.7091 105.401 43.7091 141.469C43.7091 177.805 47.0508 204.924 53.7341 222.824C60.4174 240.458 71.6455 249.275 87.4182 249.275C103.191 249.275 114.553 240.458 121.503 222.824C128.454 204.924 131.929 177.805 131.929 141.469C131.929 105.401 128.32 79.084 121.102 62.5191C114.152 45.9542 102.924 37.6717 87.4182 37.6717Z" fill="#EDEDED"/>
<path d="M344.861 126.24C345.663 137.462 346.064 147.214 346.064 155.496C346.064 167.519 344.994 178.74 342.856 189.16C340.984 199.58 338.445 209.466 335.237 218.817C338.177 223.092 341.385 227.767 344.861 232.844C348.603 237.92 352.212 243.13 355.688 248.473C359.43 253.55 363.039 258.626 366.515 263.702C370.257 268.511 373.733 272.92 376.941 276.927H328.42L312.38 254.485C305.162 263.034 296.34 269.847 285.914 274.924C275.755 279.733 265.061 282.137 253.833 282.137C228.704 282.137 209.857 276.26 197.292 264.504C184.728 252.748 178.445 233.779 178.445 207.595C178.445 198.511 179.515 189.962 181.653 181.947C184.059 173.931 187.267 166.45 191.277 159.504C195.287 152.29 199.832 145.477 204.911 139.065C210.258 132.385 215.738 125.84 221.352 119.427C215.204 110.878 209.456 101.66 204.109 91.7748C198.763 81.6221 196.089 70.9351 196.089 59.7137C196.089 51.6985 197.292 44.084 199.698 36.8702C202.372 29.6565 205.981 23.3779 210.525 18.0343C215.337 12.4237 221.085 8.01526 227.768 4.80915C234.452 1.60305 241.937 0 250.224 0C267.868 0 281.369 5.34351 290.726 16.0305C300.082 26.4504 304.761 39.2748 304.761 54.5038C304.761 62.2519 303.691 69.7328 301.553 76.9466C299.414 83.8931 296.473 90.3053 292.731 96.1832C289.523 100.725 285.78 105.401 281.502 110.21C277.492 114.752 273.482 119.427 269.472 124.237C276.156 133.588 282.305 142.405 287.919 150.687C293.8 158.969 299.815 167.519 305.964 176.336C306.231 173.931 306.365 171.393 306.365 168.721C306.365 166.05 306.365 163.244 306.365 160.305C306.365 155.763 306.097 150.553 305.563 144.676C305.028 138.531 304.092 132.385 302.756 126.24H344.861ZM242.605 150.687C234.318 160.038 228.036 169.122 223.758 177.939C219.481 186.756 217.342 197.042 217.342 208.798C217.342 220.553 220.55 230.439 226.966 238.454C233.382 246.469 241.803 250.477 252.229 250.477C259.715 250.477 266.933 248.473 273.883 244.466C280.834 240.191 287.25 233.645 293.132 224.828L242.605 150.687ZM235.788 58.9122C235.788 66.1259 236.991 72.4046 239.397 77.7481C242.071 83.0916 245.279 88.8359 249.021 94.9809C253.566 89.6374 257.71 84.1603 261.452 78.5496C265.195 72.6717 267.066 65.3244 267.066 56.5076C267.066 50.3626 265.462 45.1527 262.254 40.8779C259.314 36.603 255.304 34.4656 250.224 34.4656C246.482 34.4656 243.14 36.7366 240.199 41.2786C237.259 45.5534 235.788 51.4313 235.788 58.9122Z" fill="#EDEDED"/>
<path d="M483.607 0L561 276.927H514.484L496.439 206.794H423.457L406.214 276.927H360.5L435.487 0H483.607ZM487.617 170.725L465.963 76.145L460.349 46.4886L455.938 76.145L432.279 170.725H487.617Z" fill="#EDEDED"/>
</svg>
