<svg width="934" height="280" viewBox="0 0 934 280" fill="none" xmlns="http://www.w3.org/2000/svg">
<path d="M0.59906 215.078H7.01419C19.5771 223.841 32.6747 229.284 45.5049 233.798C58.6025 238.312 70.7645 240.569 81.991 240.569C97.2269 240.569 108.854 237.648 116.873 231.807C125.159 225.699 129.303 215.609 129.303 201.536C129.303 191.712 125.293 182.816 117.274 174.851C109.523 166.619 99.7662 159.848 88.0052 154.538C74.373 148.165 62.4783 142.058 52.321 136.216C42.1637 130.109 33.7439 123.869 27.0615 117.496C20.379 110.858 15.3004 103.689 11.8255 95.9886C8.61797 88.2883 7.01419 79.5258 7.01419 69.7013C7.01419 57.7525 9.28621 47.3969 13.8303 38.6344C18.3743 29.872 24.5221 22.7027 32.2738 17.1266C40.2927 11.285 49.3808 7.03649 59.538 4.38121C69.9626 1.4604 80.9218 0 92.4156 0C104.177 0 116.205 1.19487 128.501 3.58463C141.064 5.97439 152.691 11.0194 163.383 18.7198V57.3542H156.567C147.211 51.247 136.787 46.6003 125.293 43.4139C114.067 40.2276 103.375 38.6344 93.2175 38.6344C80.3872 38.6344 70.4972 41.0242 63.5475 45.8037C56.8651 50.3177 53.5239 57.8852 53.5239 68.5064C53.5239 78.331 56.7314 86.2968 63.1465 92.404C69.829 98.2456 77.9815 103.158 87.6042 107.141C104.177 114.045 118.21 120.948 129.703 127.852C141.197 134.49 150.419 141.527 157.369 148.962C164.586 156.131 169.664 163.831 172.605 172.063C175.812 180.294 177.416 189.322 177.416 199.147C177.416 226.762 168.862 247.207 151.755 260.484C134.916 273.495 111.394 280 81.1891 280C65.6859 280 51.2518 277.876 37.887 273.627C24.5221 269.113 11.8255 264.334 0.59906 256.899V215.078Z" fill="#EDEDED"/>
<path d="M301.175 280H256.269V42.2191H184.5V0H372.944V42.2191H301.175V280Z" fill="#EDEDED"/>
<path d="M467.087 280C441.159 280 421.379 272.167 407.747 256.501C394.382 240.835 387.7 218.53 387.7 189.587V0H432.606V186.003C432.606 193.969 433.141 201.536 434.21 208.706C435.279 215.609 437.15 221.584 439.823 226.629C442.496 231.674 445.971 235.657 450.248 238.578C454.792 241.498 460.405 242.959 467.087 242.959C473.77 242.959 479.383 241.498 483.927 238.578C488.471 235.657 491.946 231.674 494.352 226.629C497.024 221.584 498.896 215.609 499.965 208.706C501.034 201.536 501.569 193.969 501.569 186.003V0H546.474V189.587C546.474 218.53 539.658 240.835 526.026 256.501C512.661 272.167 493.015 280 467.087 280Z" fill="#EDEDED"/>
<path d="M614.046 42.2191V238.179H628.88C641.978 238.179 652.67 236.321 660.956 232.603C669.242 228.886 675.657 223.044 680.201 215.078C684.746 207.112 687.82 196.89 689.423 184.41C691.294 171.93 692.23 156.927 692.23 139.403C692.23 122.143 691.294 107.406 689.423 95.192C687.82 82.9777 684.612 73.0204 679.801 65.32C675.257 57.3542 668.975 51.5126 660.956 47.7952C652.937 44.0778 642.646 42.2191 630.083 42.2191H614.046ZM568.338 280L569.14 0H631.286C650.799 0 667.238 2.52251 680.602 7.56756C694.235 12.6126 705.194 25.358 713.48 36.2447C722.034 47.1313 728.181 61.0716 731.923 78.0654C735.933 94.7937 737.938 115.107 737.938 139.004C737.938 164.229 735.933 185.472 731.923 202.731C727.914 219.991 721.499 233.931 712.678 244.552C704.125 255.173 692.23 268.051 678.598 272.831C664.966 277.61 648.393 280 628.88 280H568.338Z" fill="#EDEDED"/>
<path d="M884.283 0H934L857.82 155.334L857.018 280H811.311L812.113 158.521C799.282 133.826 786.318 108.203 773.221 81.6501C760.391 55.0972 747.56 24.6942 734.73 0H783.244L834.565 115.903L884.283 0Z" fill="#EDEDED"/>
</svg>
